<?xml version="1.0" standalone="no"?>
<!DOCTYPE svg PUBLIC "-//W3C//DTD SVG 20010904//EN"
 "http://www.w3.org/TR/2001/REC-SVG-20010904/DTD/svg10.dtd">
<svg version="1.0" xmlns="http://www.w3.org/2000/svg"
 width="642.000000pt" height="772.000000pt" viewBox="0 0 642.000000 772.000000"
 preserveAspectRatio="xMidYMid meet">

<g transform="translate(0.000000,772.000000) scale(0.100000,-0.100000)"
fill="#000000" stroke="none">
<path d="M2163 7479 c-71 -27 -155 -106 -190 -177 -24 -50 -28 -69 -28 -147 1
-90 1 -91 463 -1609 255 -835 474 -1540 487 -1565 29 -58 101 -126 163 -154
38 -18 66 -22 147 -22 95 0 103 2 163 34 70 38 119 89 154 160 19 38 23 62 23
146 l0 100 -463 1520 c-255 836 -474 1539 -487 1561 -35 60 -117 130 -181 153
-73 28 -180 27 -251 0z"/>
<path d="M3570 7136 c-79 -23 -100 -35 -155 -87 -91 -86 -130 -205 -106 -319
6 -30 217 -729 468 -1554 353 -1164 468 -1529 510 -1626 199 -450 511 -787
861 -926 l72 -29 -6 -45 c-11 -87 -73 -311 -116 -417 -61 -156 -186 -401 -266
-523 -261 -400 -588 -625 -1018 -701 -234 -41 -603 -36 -852 12 -276 53 -511
181 -732 399 -211 207 -379 473 -516 814 -24 60 -82 235 -129 390 -47 154
-154 508 -238 786 l-154 505 116 37 c211 68 361 112 366 107 2 -3 29 -84 58
-180 62 -199 80 -239 134 -291 90 -87 222 -112 354 -68 81 27 118 50 164 101
59 65 79 121 79 214 0 77 -15 128 -393 1345 -335 1081 -397 1273 -427 1317
-72 105 -203 160 -322 134 -143 -30 -239 -97 -289 -199 -23 -49 -27 -69 -26
-137 1 -75 16 -126 230 -815 126 -404 229 -736 228 -738 -1 -1 -109 -35 -239
-76 -153 -47 -239 -69 -241 -62 -3 6 -34 110 -71 231 -74 246 -86 274 -141
328 -56 57 -126 89 -206 95 -56 4 -83 0 -155 -23 -78 -26 -93 -35 -148 -89
-74 -75 -99 -140 -92 -244 3 -52 92 -356 391 -1338 213 -699 405 -1325 428
-1390 307 -892 838 -1499 1543 -1764 137 -52 365 -107 516 -125 158 -19 449
-19 611 0 476 55 942 239 1291 507 474 366 822 960 937 1603 30 169 294 2727
288 2792 -11 108 -84 210 -186 260 -51 25 -66 28 -171 28 -101 0 -120 -3 -158
-23 -101 -54 -162 -137 -181 -248 -5 -32 -47 -421 -92 -864 -45 -443 -84 -807
-85 -809 -8 -10 -107 61 -165 118 -108 109 -194 253 -258 436 -18 50 -226 727
-462 1505 -236 778 -441 1438 -455 1466 -30 63 -98 128 -167 159 -65 30 -166
40 -227 21z"/>
</g>
</svg>
